<svg version="1.1" id="Layer_1" xmlns="http://www.w3.org/2000/svg" xmlns:xlink="http://www.w3.org/1999/xlink" x="0px" y="0px"
	 width="100%" viewBox="0 0 200 200" enable-background="new 0 0 200 200" xml:space="preserve">
<path fill="#02E8B6" opacity="1.000000" stroke="none" 
	d="
M118.000000,201.000000 
	C107.979103,201.000000 97.958214,201.000000 87.299667,200.639282 
	C81.424332,198.917191 76.106102,197.806473 70.962036,196.153687 
	C38.142441,185.608704 15.854844,164.281601 4.998950,131.339798 
	C3.744732,127.533905 2.336713,123.778702 1.000001,120.000000 
	C1.000000,107.979103 1.000000,95.958214 1.353810,83.310699 
	C5.386097,72.688553 8.170553,62.242916 12.929084,52.791130 
	C22.848249,33.088879 38.493622,18.775913 58.728935,10.023268 
	C67.482536,6.236957 76.889709,3.961664 86.000000,1.000000 
	C95.354225,1.000000 104.708458,1.000000 114.704170,1.363142 
	C127.998497,3.749700 139.902481,7.859164 150.995422,14.328116 
	C171.459351,26.261847 185.932251,43.305264 193.946487,65.547821 
	C196.922272,73.806824 198.684402,82.503120 201.000000,91.000000 
	C201.000000,98.354256 201.000000,105.708504 200.636734,113.704323 
	C197.192566,133.828506 190.287476,151.489975 175.887299,166.132828 
	C168.723602,158.547760 162.097382,150.988739 154.847885,144.084137 
	C151.203506,140.613129 152.164505,138.188110 154.520172,134.931488 
	C161.741196,124.948738 164.705566,113.188606 164.622437,101.416870 
	C164.540665,89.834213 161.385376,78.523262 155.101562,68.081612 
	C136.017151,36.369492 92.892235,26.805098 62.116756,50.039436 
	C41.409306,65.672783 31.254705,94.853798 40.029453,121.119774 
	C50.103561,151.275208 84.574486,172.566833 117.002632,162.225220 
	C120.816513,161.008926 126.715233,160.468155 129.361832,162.537506 
	C137.767502,169.109772 145.091492,177.065475 153.730179,185.345886 
	C147.439575,188.803802 142.753448,191.886398 137.674362,194.043854 
	C131.284286,196.758179 124.572800,198.715851 118.000000,201.000000 
z"/>
<path fill="#FFFFFF" opacity="1.000000" stroke="none" 
	d="
M118.468658,201.000000 
	C124.572800,198.715851 131.284286,196.758179 137.674362,194.043854 
	C142.753448,191.886398 147.439575,188.803802 153.730179,185.345886 
	C145.091492,177.065475 137.767502,169.109772 129.361832,162.537506 
	C126.715233,160.468155 120.816513,161.008926 117.002632,162.225220 
	C84.574486,172.566833 50.103561,151.275208 40.029453,121.119774 
	C31.254705,94.853798 41.409306,65.672783 62.116756,50.039436 
	C92.892235,26.805098 136.017151,36.369492 155.101562,68.081612 
	C161.385376,78.523262 164.540665,89.834213 164.622437,101.416870 
	C164.705566,113.188606 161.741196,124.948738 154.520172,134.931488 
	C152.164505,138.188110 151.203506,140.613129 154.847885,144.084137 
	C162.097382,150.988739 168.723602,158.547760 175.887299,166.132828 
	C190.287476,151.489975 197.192566,133.828506 200.636734,114.172943 
	C201.000000,142.925186 201.000000,171.850357 201.000000,201.000000 
	C173.646179,201.000000 146.291748,201.000000 118.468658,201.000000 
M62.653419,113.642906 
	C65.554092,121.825020 70.288506,128.842636 77.422043,133.722290 
	C96.894676,147.042419 125.647324,140.685272 136.096680,118.845345 
	C148.022751,93.918945 132.871033,64.776840 105.544403,61.604042 
	C88.457039,59.620083 73.863983,67.037132 65.601814,81.875748 
	C60.100559,91.755836 60.179905,102.191841 62.653419,113.642906 
z"/>
<path fill="#FFFFFF" opacity="1.000000" stroke="none" 
	d="
M201.000000,90.531342 
	C198.684402,82.503120 196.922272,73.806824 193.946487,65.547821 
	C185.932251,43.305264 171.459351,26.261847 150.995422,14.328116 
	C139.902481,7.859164 127.998497,3.749700 115.172829,1.363142 
	C143.595230,1.000000 172.190475,1.000000 201.000000,1.000000 
	C201.000000,30.687218 201.000000,60.374950 201.000000,90.531342 
z"/>
<path fill="#FFFFFF" opacity="1.000000" stroke="none" 
	d="
M1.000001,120.468658 
	C2.336713,123.778702 3.744732,127.533905 4.998950,131.339798 
	C15.854844,164.281601 38.142441,185.608704 70.962036,196.153687 
	C76.106102,197.806473 81.424332,198.917191 86.831009,200.639282 
	C58.408623,201.000000 29.817245,201.000000 1.000000,201.000000 
	C1.000000,174.312866 1.000000,147.625092 1.000001,120.468658 
z"/>
<path fill="#FFFFFF" opacity="1.000000" stroke="none" 
	d="
M85.531342,1.000000 
	C76.889709,3.961664 67.482536,6.236957 58.728935,10.023268 
	C38.493622,18.775913 22.848249,33.088879 12.929084,52.791130 
	C8.170553,62.242916 5.386097,72.688553 1.353810,82.842041 
	C1.000000,55.738461 1.000000,28.476917 1.000000,1.000000 
	C29.020527,1.000000 57.041603,1.000000 85.531342,1.000000 
z"/>
<path fill="#C84CE3" opacity="1.000000" stroke="none" 
	d="
M62.548218,113.249878 
	C60.179905,102.191841 60.100559,91.755836 65.601814,81.875748 
	C73.863983,67.037132 88.457039,59.620083 105.544403,61.604042 
	C132.871033,64.776840 148.022751,93.918945 136.096680,118.845345 
	C125.647324,140.685272 96.894676,147.042419 77.422043,133.722290 
	C70.288506,128.842636 65.554092,121.825020 62.548218,113.249878 
z"/>
</svg>